<svg width="15" height="27" viewBox="0 0 15 27" fill="none" xmlns="http://www.w3.org/2000/svg">
<g clip-path="url(#clip0_1_735)">
<path d="M0.431627 2.36789C0.178009 2.13088 0.0233323 1.79362 0.00242745 1.43209C-0.0184751 1.07057 0.0963144 0.715244 0.320666 0.446071C0.545197 0.176908 0.860456 0.0166468 1.19543 0.00122358C1.53057 -0.0142001 1.85736 0.116713 2.10208 0.364438L14.587 12.4984C14.8498 12.7542 15 13.118 15 13.5C15 13.8821 14.85 14.246 14.5872 14.5016L2.10225 26.6356C1.85751 26.8833 1.53059 27.014 1.19543 26.9988C0.860469 26.9834 0.545188 26.8231 0.320666 26.554C0.0963144 26.2848 -0.0184773 25.9293 0.00242745 25.5679C0.0233301 25.2064 0.178009 24.8691 0.431627 24.6321L11.8856 13.5002L0.431627 2.36789Z" fill="white"/>
<path d="M0.431627 2.36789C0.178009 2.13088 0.0233323 1.79362 0.00242745 1.43209C-0.0184751 1.07057 0.0963144 0.715244 0.320666 0.446071C0.545197 0.176908 0.860456 0.0166468 1.19543 0.00122358C1.53057 -0.0142001 1.85736 0.116713 2.10208 0.364438L14.587 12.4984C14.8498 12.7542 15 13.118 15 13.5C15 13.8821 14.85 14.246 14.5872 14.5016L2.10225 26.6356C1.85751 26.8833 1.53059 27.014 1.19543 26.9988C0.860469 26.9834 0.545188 26.8231 0.320666 26.554C0.0963144 26.2848 -0.0184773 25.9293 0.00242745 25.5679C0.0233301 25.2064 0.178009 24.8691 0.431627 24.6321L11.8856 13.5002L0.431627 2.36789Z" fill="black"/>
</g>
<defs>
<clipPath id="clip0_1_735">
<rect width="15" height="27" fill="white"/>
</clipPath>
</defs>
</svg>
