<svg width="22" height="16" viewBox="0 0 22 16" fill="none" xmlns="http://www.w3.org/2000/svg">
<g clip-path="url(#clip0_1_172)">
<path d="M10.6543 6.91333C10.5876 6.90666 10.5076 6.90666 10.4342 6.91333C8.8472 6.86 7.58691 5.56 7.58691 3.96C7.58691 2.32666 8.90722 1 10.5476 1C12.1813 1 13.5083 2.32666 13.5083 3.96C13.5016 5.56 12.2413 6.86 10.6543 6.91333Z" stroke="black" stroke-width="1.2" stroke-linecap="round" stroke-linejoin="round"/>
<path d="M7.21028 9.82809C5.59657 10.9081 5.59657 12.6681 7.21028 13.7414C9.04403 14.9681 12.0514 14.9681 13.8852 13.7414C15.4988 12.6614 15.4988 10.9014 13.8852 9.82809C12.058 8.60809 9.0507 8.60809 7.21028 9.82809Z" stroke="black" stroke-width="1.2" stroke-linecap="round" stroke-linejoin="round"/>
</g>
<defs>
<clipPath id="clip0_1_172">
<rect width="21.0954" height="15.6617" fill="white"/>
</clipPath>
</defs>
</svg>
