<svg width="110" height="11" viewBox="0 0 110 11" fill="none" xmlns="http://www.w3.org/2000/svg">
<path d="M29.0625 8.8388V0.1163H27.7256V10.2926H33.945V8.9551H29.1788C29.1206 9.01325 29.0625 8.89695 29.0625 8.8388ZM43.1287 0C41.7337 0 40.3969 0.5815 39.4088 1.57005C38.4206 2.5586 37.8975 3.89605 37.8975 5.2335C37.8975 6.6291 38.4206 7.9084 39.4088 8.89695C40.3388 9.8855 41.7337 10.467 43.1287 10.467C44.5238 10.467 45.8606 9.94365 46.8488 8.89695C47.8369 7.9084 48.36 6.57095 48.36 5.2335C48.36 3.8379 47.8369 2.5586 46.8488 1.57005C45.8606 0.52335 44.5238 0 43.1287 0ZM45.8606 7.96655C45.105 8.7225 44.1169 9.12955 43.1287 9.12955C42.1406 9.12955 41.1525 8.7225 40.3969 7.96655C39.6413 7.2106 39.2344 6.2802 39.2344 5.2335C39.2344 4.1868 39.6413 3.2564 40.3969 2.50045C41.0944 1.7445 42.0825 1.33745 43.1287 1.33745C44.1169 1.33745 45.1631 1.7445 45.8606 2.50045C46.5581 3.2564 46.965 4.1868 46.965 5.2335C47.0231 6.2802 46.6163 7.2106 45.8606 7.96655ZM16.74 8.8388V6.0476C16.74 5.98945 16.7981 5.9313 16.8563 5.9313H21.4481V4.59385H16.8563C16.7981 4.59385 16.74 4.5357 16.74 4.47755V1.68635C16.74 1.6282 16.7981 1.57005 16.8563 1.57005H21.5644V0.2326H15.4031V10.4089H21.6225V9.0714H16.8563C16.7981 9.01325 16.74 8.89695 16.74 8.8388ZM4.76625 7.6758C4.76625 7.73395 4.70813 7.73395 4.65 7.73395C4.59188 7.73395 4.53375 7.73395 4.53375 7.6758L1.51125 0.1163H0L4.12687 10.2926H5.115L9.24187 0.1163V0.0581502H7.78875L4.76625 7.6758ZM94.1044 1.45375H97.1269C97.185 1.45375 97.2431 1.5119 97.2431 1.57005V10.2926H98.58V1.57005C98.58 1.5119 98.6381 1.45375 98.6963 1.45375H101.719V0.1163H94.0463V1.45375H94.1044ZM55.5675 2.9075V1.57005C55.5675 1.5119 55.5675 1.5119 55.6256 1.5119H57.9506C58.4156 1.5119 58.8225 1.6282 59.1713 1.91895C59.6363 2.26785 59.8688 2.7912 59.8688 3.3727C59.8688 3.7216 59.7525 4.12865 59.52 4.4194C59.2875 4.71015 59.2875 5.1172 59.5781 5.40795C59.6944 5.52425 59.8688 5.5824 60.0431 5.5824C60.2175 5.5824 60.3919 5.52425 60.5081 5.40795L60.5662 5.3498C61.0312 4.82645 61.2638 4.0705 61.2638 3.3727C61.2638 2.61675 61.0312 1.8608 60.5081 1.2793C60.1012 0.75595 59.2875 0.1163 57.8925 0.1163H54.1725V10.3507H55.5675V5.3498C55.5675 5.3498 55.5675 5.29165 55.6256 5.29165H55.6838L59.9269 10.2926L59.985 10.3507H61.7869L58.59 6.57095L55.5675 2.9075ZM107.88 10.3507H109.275V0.1163H107.88V10.3507ZM80.2706 1.45375H83.2931C83.3512 1.45375 83.4094 1.5119 83.4094 1.57005V10.2926H84.7463V1.57005C84.7463 1.5119 84.8044 1.45375 84.8625 1.45375H87.885V0.1163H80.2125V1.45375H80.2706ZM69.285 8.9551C69.285 8.9551 69.2269 8.89695 69.2269 8.8388V6.0476C69.2269 5.98945 69.285 5.9313 69.3431 5.9313H73.935V4.59385H69.3431C69.285 4.59385 69.2269 4.5357 69.2269 4.47755V1.68635C69.2269 1.6282 69.285 1.57005 69.3431 1.57005H73.9931V0.2326H67.8319V10.4089H74.0513V9.0714H69.3431C69.3431 9.01325 69.3431 8.9551 69.285 8.9551Z" fill="#141615"/>
</svg>
